{"title":"Jennifer Lopez Ft. Pitbull - Dance Again [Music Video] 1080p [Sb","uid":8741666,"size":178710855,"categoryP":"video","categoryS":"music_videos","magnet":"?xt=urn:btih:64fd6ac8602e4ad9c396c3bbcbc4f6cfc28f5ede&amp;dn=Jennifer+Lopez+Ft.+Pitbull+-+Dance+Again+%5BMusic+Video%5D+1080p+%5BSb&amp;tr=udp%3A%2F%2Ftracker.openbittorrent.com%3A80&amp;tr=udp%3A%2F%2Fopen.demonii.com%3A1337&amp;tr=udp%3A%2F%2Ftracker.coppersurfer.tk%3A6969&amp;tr=udp%3A%2F%2Fexodus.desync.com%3A6969","seeders":5,"leechers":1,"uploader":"Sbyky","files":-1,"time":1374806053,"description":"\n\nGeneral\nComplete name                            : Jennifer Lopez Ft. Pitbull - Dance Again [Music Video] 1080p [Sbyky].mp4\nFormat                                   : MPEG-4\nFormat profile                           : Base Media / Version 2\nCodec ID                                 : mp42\nFile size                                : 170 MiB\nDuration                                 : 4mn 26s\nOverall bit rate mode                    : Variable\nOverall bit rate                         : 5 364 Kbps\nEncoded date                             : UTC 2013-04-08 11:09:52\nTagged date                              : UTC 2013-04-08 11:09:52\n\nVideo\nID                                       : 1\nFormat                                   : AVC\nFormat/Info                              : Advanced Video Codec\nFormat profile                           : &lt;a class=&quot;__cf_email__&quot; href=&quot;/cdn-cgi/l/email-protection&quot; data-cfemail=&quot;347c5d535c7478001a04&quot;&gt;[email&amp;#160;protected]&lt;/a&gt;&lt;script cf-hash='f9e31' type=&quot;text/javascript&quot;&gt;\n/* &lt;![CDATA[ */!function(){try{var t=&quot;currentScript&quot;in document?document.currentScript:function(){for(var t=document.getElementsByTagName(&quot;script&quot;),e=t.length;e--;)if(t[e].getAttribute(&quot;cf-hash&quot;))return t[e]}();if(t&amp;&amp;t.previousSibling){var e,r,n,i,c=t.previousSibling,a=c.getAttribute(&quot;data-cfemail&quot;);if(a){for(e=&quot;&quot;,r=parseInt(a.substr(0,2),16),n=2;a.length-n;n+=2)i=parseInt(a.substr(n,2),16)^r,e+=String.fromCharCode(i);e=document.createTextNode(e),c.parentNode.replaceChild(e,c)}}}catch(u){}}();/* ]]&gt; */&lt;/script&gt;\nFormat settings, CABAC                   : Yes\nFormat settings, ReFrames                : 1 frame\nCodec ID                                 : avc1\nCodec ID/Info                            : Advanced Video Coding\nDuration                                 : 4mn 26s\nBit rate                                 : 5 170 Kbps\nMaximum bit rate                         : 12.5 Mbps\nWidth                                    : 1 920 pixels\nHeight                                   : 1 080 pixels\nDisplay aspect ratio                     : 16:9\nFrame rate mode                          : Constant\nFrame rate                               : 23.976 fps\nColor space                              : YUV\nChroma subsampling                       : 4:2:0\nBit depth                                : 8 bits\nScan type                                : Progressive\nBits/(Pixel*Frame)                       : 0.104\nStream size                              : 164 MiB (96%)\nTagged date                              : UTC 2013-04-08 11:10:22\n\nAudio\nID                                       : 2\nFormat                                   : AAC\nFormat/Info                              : Advanced Audio Codec\nFormat profile                           : LC\nCodec ID                                 : 40\nDuration                                 : 4mn 26s\nBit rate mode                            : Variable\nBit rate                                 : 192 Kbps\nMaximum bit rate                         : 201 Kbps\nChannel(s)                               : 2 channels\nChannel positions                        : Front: L R\nSampling rate                            : 44.1 KHz\nCompression mode                         : Lossy\nStream size                              : 6.10 MiB (4%)\nTitle                                    : IsoMedia File Produced by Google, 5-11-2011\nEncoded date                             : UTC 2013-04-08 11:10:16\nTagged date                              : UTC 2013-04-08 11:10:22\n\nShared By Sbyky\n[IMG]http://www.shotpix.com/photos/20130722137449689157289.gif[/IMG]\n[IMG]http://www.shotpix.com/photos/20130722137449694197310.gif[/IMG]","torrent":{"xt":"urn:btih:64fd6ac8602e4ad9c396c3bbcbc4f6cfc28f5ede","amp;dn":"Jennifer+Lopez+Ft.+Pitbull+-+Dance+Again+%5BMusic+Video%5D+1080p+%5BSb","amp;tr":["udp%3A%2F%2Ftracker.openbittorrent.com%3A80","udp%3A%2F%2Fopen.demonii.com%3A1337","udp%3A%2F%2Ftracker.coppersurfer.tk%3A6969","udp%3A%2F%2Fexodus.desync.com%3A6969"],"infoHash":"64fd6ac8602e4ad9c396c3bbcbc4f6cfc28f5ede","infoHashBuffer":{"type":"Buffer","data":[100,253,106,200,96,46,74,217,195,150,195,187,203,196,246,207,194,143,94,222]},"announce":[],"urlList":[]}}